<?xml version="1.0"?>
<svg xmlns="http://www.w3.org/2000/svg" id="Edit" viewBox="0 0 512 512" width="512" height="512"><path d="M504.735,58.579a39.742,39.742,0,0,0-11.716-28.285L481.706,18.981a40,40,0,0,0-56.569,0L348.118,96H48A40.045,40.045,0,0,0,8,136V464a40.045,40.045,0,0,0,40,40H376a40.045,40.045,0,0,0,40-40V163.882l77.019-77.019A39.738,39.738,0,0,0,504.735,58.579Zm-45.657,39.6L413.823,52.922l5.658-5.657L464.735,92.52ZM118.451,378.607l14.942,14.942-19.425,4.483Zm33.326,10.7-29.084-29.084,4.851-21.022,4.035-4.034,45.254,45.254-4.034,4.035Zm36.37-20.2-45.255-45.255L402.51,64.236l45.255,45.254ZM400,464a24.027,24.027,0,0,1-24,24H48a24.027,24.027,0,0,1-24-24V136a24.027,24.027,0,0,1,24-24H332.118L114.608,329.51a8,8,0,0,0-2.138,3.858L95.5,406.907a8,8,0,0,0,9.593,9.593l73.539-16.97a8,8,0,0,0,3.858-2.138L400,179.882ZM481.706,75.549l-5.657,5.657L430.794,35.951l5.657-5.657a24,24,0,0,1,33.941,0l11.314,11.314a24,24,0,0,1,0,33.941Z"/><path d="M413.823,98.177a8,8,0,0,0-11.313,0L214.343,286.343a8,8,0,0,0,11.314,11.314L413.823,109.49A8,8,0,0,0,413.823,98.177Z"/><path d="M193.8,306.882l-5.657,5.657a8,8,0,0,0,11.314,11.314l5.657-5.657A8,8,0,1,0,193.8,306.882Z"/></svg>
